<svg id="Camada_1" data-name="Camada 1" xmlns="http://www.w3.org/2000/svg" xmlns:xlink="http://www.w3.org/1999/xlink" viewBox="0 0 208 74"><defs><style>.cls-1{fill:none;}.cls-2{clip-path:url(#clip-path);}.cls-3,.cls-4,.cls-5,.cls-6,.cls-7{fill-rule:evenodd;}.cls-4{fill:#fff;}.cls-5{fill:#d51317;}.cls-6{fill:#1a5036;}.cls-7{fill:#7f222a;}.cls-8{clip-path:url(#clip-path-3);}</style><clipPath id="clip-path"><rect class="cls-1" x="-29" y="-57.04" width="266" height="188.08"/></clipPath><clipPath id="clip-path-3"><rect class="cls-1" x="193.1" y="-47" width="188.92" height="133.58"/></clipPath></defs><g class="cls-2"><g class="cls-2"><path class="cls-3" d="M9.47,28.3c-2.77-2.05-6-.2-6.77,3.22,2.83-2,5.08-.91,3.74,2.83a42.9,42.9,0,0,1-2.53,4.59c-1.23,3.19.61,5.63,4.62,4.72a4.52,4.52,0,0,0,1.76,1.89c-.53,0-.72,1,.19,1.43a16.53,16.53,0,0,1,4.36,2.93c.95.68,1.73.72,2.05,0,.95,0,1.34-.26,1.24-.94.78-.49.68-1.31-.39-1.73-2-.75-3.16-1.14-3.42-1.3a4.39,4.39,0,0,0,1.21-.65c0,.45.32.75.91.84a13.21,13.21,0,0,1,3.61,1.18c.88.42,1.46.19,1.46-.62a.52.52,0,0,0,.59-.75c.33-.68-.07-1.11-1.11-1.27l-2.37-.2c2.11-1.69,2.44-3.35.75-4.45a3.21,3.21,0,0,0,.06-.79,12.78,12.78,0,0,0,3.48-1.3,2.48,2.48,0,0,0,1.4.3c.91.52,2,.22,1.66-.53.65-.19.85-.52.62-1,.82-.55.2-1.62-1.1-1.72.26-1.27-1-2.22-1.5-1a1.23,1.23,0,0,1-.33.78,2.12,2.12,0,0,1-.26.26,1.46,1.46,0,0,0-.68.71,6.82,6.82,0,0,1-2.7-.39,10.06,10.06,0,0,1,1-1.49c.39-.43.74-.69,1-1,2.74-2.31,2.54-5,.75-5.14a7.85,7.85,0,0,0-2.7-2.9c-.33-1.5-.94-1.5-1.82-.58a5.19,5.19,0,0,0-2.28.45c-.78-1.37-1.63-.91-2.08,1.57a5,5,0,0,0-.95,4.26c-1,1.46-.26,3,2.38,4.13-3,.39-4.1,1.66-3.29,3.45a1.3,1.3,0,0,1-.75.88,5.53,5.53,0,0,0-2.67,2.18c-1.14-.58-1.1-2.44.33-4.49s2.73-3.55,3-4.85c.56-2.44-.84-3.84-2.44-3.48"/><path class="cls-4" d="M20.51,30.71a.38.38,0,0,1,0-.49.13.13,0,0,1,.2.13.76.76,0,0,0-.16.36"/><path class="cls-5" d="M15,41.06a4.27,4.27,0,0,0,.68-.85,7.64,7.64,0,0,1-3.38-1.69c-.3.52-1.05.81-1.47,1.07-3,1.6-2.67,4.36.2,6,.29.19.19.39-.07.32-1.07-.29-.85.56,0,1a17.88,17.88,0,0,1,4.52,3c.62.46,1.7,0,.75-.91a2.68,2.68,0,0,0-.62-.49,1.68,1.68,0,0,1,1.27,1.08c1.24.16,1.37-.91-.26-1.6a2,2,0,0,1,1.37.69c.39-.3.32-.59-.13-.88a5.19,5.19,0,0,0-1.53-.62,14.22,14.22,0,0,1-2.44-1c-.13-.06-.13-.16,0-.26,2.86-2.21,1.85-4.85-1.27-5.43-.33,0-.59-.07-.75-.07s-.17-.16,0-.19a5.32,5.32,0,0,1,3.19.88"/><path class="cls-5" d="M21.84,45.61a2.37,2.37,0,0,0-1.27-.22,1.67,1.67,0,0,1,1.2.55c.2.26-.19.68-.52.45a1.56,1.56,0,0,0-1.3-.45,3,3,0,0,1,1.08.49c.32.29.13.88-.59.65a16.38,16.38,0,0,0-4-1.43c-.48-.13-.55-.46-.09-.75a8.24,8.24,0,0,0,3-4.4c1.34.88.91,2.28-1.33,4.07-.2.13-.17.2,0,.23l2.73.16c.75.07,1.21.3,1.11.65"/><path class="cls-5" d="M14.42,36.66c.81,0,1.27.85,1.46,1a1,1,0,0,0,1.34,0c1.49-1,2.31-.39,2,.16-.59-.16-.95-.16-1.14,0a1.5,1.5,0,0,1,1.2.36c.29.32,0,1-.52.49a.84.84,0,0,0-1-.1A1.92,1.92,0,0,1,19,39c.16.32-.23.65-.62.49a1.21,1.21,0,0,0-1.27,0,3,3,0,0,1-2.93-.29c-1.27-.58-2-1.33-2-2.18,0-.62.59-1.3,1.69-1.72a6.77,6.77,0,0,1,2.7-.33c.56,0,.85.29.82.75s-.07,1.37-.26,1.53A.73.73,0,0,1,16,37.12c-.55-.55-1.08-.75-1.53-.46"/><path class="cls-5" d="M24.41,37.77c0-.2.29-.36.62-.36s.65.16.65.36-.29.39-.65.39-.62-.16-.62-.39"/><path class="cls-5" d="M26.3,37c0-.52-1.3-.62-1.34-.13s1.27.65,1.34.13"/><path class="cls-5" d="M25.45,35.43s0-.1,0-.1c.78.06,1.21.32,1.24.71s-1.43.62-1.43,0c0-.19.39-.39.78-.32,0-.13-.26-.2-.59-.26"/><path class="cls-5" d="M19.43,35.49a.44.44,0,0,1-.23.13,6.75,6.75,0,0,1,.2,1.3c.36.2.45.56.29,1.08a.68.68,0,0,1,.07.68,5.59,5.59,0,0,0,.65-.16,10.71,10.71,0,0,0,2.21-1c0-.09,0-.19-.06-.29A2.59,2.59,0,0,0,24,37.8c.06-.45.29-.68.65-.68A.54.54,0,0,1,25,36.3a.62.62,0,0,1-.17-.22.89.89,0,0,0-.35.39c-.07-.26.13-.59.52-1,.45-.81.13-1.69-.36-1.73-.13,0-.23.17-.29.49a2.09,2.09,0,0,1-.62.85,1.64,1.64,0,0,0-.82,1.2c-.09,0-.19-.19-.26-.26a7.12,7.12,0,0,1-3.22-.52"/><path class="cls-5" d="M18.49,33.21c.09,0,.19.1.29.39s.29.3.39.1.33-.16.39.13c.07.46,0,.72-.32.78a.85.85,0,0,1-.85-.68c-.1-.42-.07-.68.1-.72"/><path class="cls-5" d="M18.71,24.26c.4-.75.72-.65.75.17a3,3,0,0,0-.75-.17"/><path class="cls-5" d="M14.91,30.09a2.52,2.52,0,0,0-1.6.19,4.76,4.76,0,0,1,.91-3.87c.43-2.57,1-2.73,1.6-.55.26,0,.32-.3.23-.82a4,4,0,0,1,4,.17c-1.37.35-1.27,2.11.65,4.33a.76.76,0,0,0-.16.09c-.07.07-.1.1-.1.13-1.89-2.67-3.61-3.71-4.88-3.12-1,.55-1.21,1.79-.65,3.45"/><path class="cls-5" d="M3.35,30.61c1-2.67,6.06-4.75,7.1.26a3.06,3.06,0,0,0-.62-2.25c1.69.2,2.54,2.05,1,4.53L8.56,36.37C6.93,39,6.93,40.8,8.43,41.64a4.06,4.06,0,0,0,0,1.56C5.08,44,2.7,42.13,4.52,38.75a31.36,31.36,0,0,0,2.09-3.68c2-4.23-.69-5.89-3.26-4.46"/><path class="cls-4" d="M21.45,31.52a.58.58,0,0,0,.39.07c-.1.61-.26,1-.55,1.17a9.27,9.27,0,0,0,.16-1.24"/><path class="cls-4" d="M21.16,31.59a1.39,1.39,0,0,1-.52.52,3.12,3.12,0,0,1,.06.61.67.67,0,0,0,.39.07,3,3,0,0,0,.07-1.2"/><path class="cls-4" d="M20.37,27.42c-.19-.52.1-.85.69-.65a2.93,2.93,0,0,1,1.2,1.07.52.52,0,0,0-.36.2c-.52-.85-.94-1-1.53-.62"/><path class="cls-4" d="M20.54,27.91c0-.07.06-.1.13-.1s.13,0,.13.1a.12.12,0,0,1-.13.13.12.12,0,0,1-.13-.13"/><path class="cls-4" d="M15.36,41.35c.82.94.85,2.08.13,3.48a6.22,6.22,0,0,0,3.45-4.91,1.44,1.44,0,0,1-.81-.1,1.11,1.11,0,0,0-.72,0,5.63,5.63,0,0,1-1.17.36,4.48,4.48,0,0,1-.88,1.17"/><path class="cls-4" d="M17.61,36.92a2.36,2.36,0,0,1,1.33-.32A5.41,5.41,0,0,0,18.39,35c.59.39,1,.36,1.4-.1a4.75,4.75,0,0,0,.42-.62,8.06,8.06,0,0,1,1.4-1.49,4.38,4.38,0,0,0,2-4c-.26-.91-1.44-1-2.12.17-.19.35-.36.39-.39,0-1.46-1.37-1.37-3.22.42-2.47-1.2-1.57-2.21-1-2,.22a5.93,5.93,0,0,0,1.59,2.67c1-.06,1.47.78.39,1.69-.16.14-.13.27.1.23a1,1,0,0,0,.88-.45c-.2.39-.33.68-.39.81-.17,1-.65,1.53-1.37,1.3a1.88,1.88,0,0,0-.78.88c-.07.13,0,1-.88,1.08-.91-.13-1.17-1.08-.94-2.84-.36.1-.43,0-.3-.29.26-.45,1.18-.91,1.4-.72s-.06.33-.45.59c.26.65,1.62.72,2.21-.23,0,0,0-.19,0-.19-.68-.1-1-.56-.75-1.14-1.66-2.61-3.29-3.65-4.49-3.16-.88.46-1,1.53-.36,3.09.17.33.23.49.13.62s-.13,0-.19,0c-1.34-.29-2.12,0-2.35.75-.19,1,.59,2,2.15,2.63a16.16,16.16,0,0,0,1.86.59.84.84,0,0,1,.71,1,10.32,10.32,0,0,1-.06,1.33"/><path class="cls-3" d="M16.66,30.58c-1-1.31-1.07-2.18-.32-2.67s1.85.45,2.28,2a1.34,1.34,0,0,1,.32.13c.13,0,.13.26,0,.23-1.07-.06-1.69.07-2.15.65-.23.2-.36.1-.26-.13a.9.9,0,0,1,.16-.19"/><path class="cls-4" d="M16.4,29.47a.12.12,0,0,1,.13-.13c.07,0,.1,0,.1.13s0,.13-.1.13a.14.14,0,0,1-.13-.13"/><path class="cls-4" d="M17.71,29.89a3,3,0,0,1,.48-.06c-.16-.91-.91-1.76-1.59-1.66a.52.52,0,0,0-.39.58c.32-.22.45-.19.81.07a1.59,1.59,0,0,1,.69,1.07"/><path class="cls-6" d="M82.74,34.83H79.1V36A4.75,4.75,0,0,0,76,34.83c-3.06,0-5.54,2.8-5.54,6.12A5.83,5.83,0,0,0,76,47a4.93,4.93,0,0,0,3.09-1.1v.91h3.64Zm-6.38,8.82a2.71,2.71,0,0,1-2.7-2.7,2.72,2.72,0,1,1,2.7,2.7"/><path class="cls-6" d="M54.4,34.83H50.75V36a4.75,4.75,0,0,0-3.09-1.14c-3.06,0-5.54,2.8-5.54,6.12a5.83,5.83,0,0,0,5.54,6,4.93,4.93,0,0,0,3.09-1.1v.91H54.4ZM48,43.65A2.72,2.72,0,0,1,45.31,41,2.72,2.72,0,1,1,48,43.65"/><path class="cls-6" d="M61.2,46.81H57.55V38H55.63V34.83h1.92v-2A4.06,4.06,0,0,1,61.78,29h1.76v3H62a.79.79,0,0,0-.84.78v2h3.25v-2A4.16,4.16,0,0,1,68.75,29h1.76v3H69a.88.88,0,0,0-.91.78v2h2.08V38H68.1v8.85H64.45V38H61.2Z"/><path class="cls-6" d="M84.33,34.86h3.61V36.2a3.72,3.72,0,0,1,2.86-1.43h.69v3.32H90.8a2.79,2.79,0,0,0-2.86,2.37v6.35H84.33Z"/><polygon class="cls-6" points="92.56 34.83 92.56 34.86 92.56 46.81 92.56 46.81 96.2 46.81 96.2 34.83 92.56 34.83"/><path class="cls-6" d="M41.57,28.58H27v3.65H36.3L27,43.16v3.65H41.57V43.16H32.78c.19-.2,8.79-10.93,8.79-10.93Z"/><path class="cls-5" d="M84.08,30.68a1.63,1.63,0,0,1-3.26,0V29.25L82.13,25h2.53l-.58,4.27Z"/><path class="cls-5" d="M88.93,30.68a1.63,1.63,0,0,0,3.25,0V29.25L90.88,25H88.34l.59,4.27Z"/><path class="cls-5" d="M78.9,25h2.61L80,29.31v1.37a1.63,1.63,0,0,1-3.25,0V29.31Z"/><path class="cls-5" d="M94.1,25H91.5L93,29.31v1.37a1.62,1.62,0,0,0,1.63,1.59,1.6,1.6,0,0,0,1.63-1.59V29.31Z"/><path class="cls-5" d="M88,28.64,87.76,25H85.25L85,28.64l-.1,1.91v.16a1.58,1.58,0,0,0,1.6,1.56h0a1.58,1.58,0,0,0,1.59-1.56v-.16Z"/><path class="cls-7" d="M139.94,28.47h.55a.48.48,0,0,0,.17.32.76.76,0,0,0,.43.11.6.6,0,0,0,.36-.09.28.28,0,0,0,.12-.25c0-.16-.23-.29-.69-.4h0l-.05,0a1.67,1.67,0,0,1-.54-.18.61.61,0,0,1-.21-.24.8.8,0,0,1-.08-.36.72.72,0,0,1,.27-.6,1.19,1.19,0,0,1,.76-.21,1.13,1.13,0,0,1,.73.22.81.81,0,0,1,.28.63h-.53a.4.4,0,0,0-.15-.3A.58.58,0,0,0,141,27a.62.62,0,0,0-.33.08.29.29,0,0,0-.12.24c0,.15.16.25.46.32l.19.05.41.11.22.09a.62.62,0,0,1,.24.24.88.88,0,0,1-.2,1,1.24,1.24,0,0,1-.79.22,1.2,1.2,0,0,1-.79-.23.88.88,0,0,1-.31-.66M137,28a1.45,1.45,0,0,1,.35-1,1.38,1.38,0,0,1,1.9,0,1.66,1.66,0,0,1,0,2,1.38,1.38,0,0,1-1.9,0,1.45,1.45,0,0,1-.35-1m.56,0a1.06,1.06,0,0,0,.19.68.66.66,0,0,0,.55.25.64.64,0,0,0,.55-.25,1.26,1.26,0,0,0,0-1.36.67.67,0,0,0-.55-.25.69.69,0,0,0-.55.25,1.06,1.06,0,0,0-.19.68m-3.14,1.33V26.63h1.05a1.18,1.18,0,0,1,.91.33,1.44,1.44,0,0,1,.3,1,1.79,1.79,0,0,1-.11.64,1,1,0,0,1-.32.45.85.85,0,0,1-.37.18,2,2,0,0,1-.56.06Zm.54-.48h.44a.7.7,0,0,0,.55-.2,1,1,0,0,0,.17-.65,1.07,1.07,0,0,0-.16-.66.57.57,0,0,0-.49-.21H135Zm-2.3-2.18h.64l1,2.66h-.58l-.18-.55h-1l-.18.55h-.57Zm.32.53-.37,1.13h.74Zm-1.28,1.21a1,1,0,0,1-.35.73,1.23,1.23,0,0,1-.83.26,1.18,1.18,0,0,1-.92-.36,1.53,1.53,0,0,1-.33-1,1.45,1.45,0,0,1,.34-1,1.24,1.24,0,0,1,1-.36,1.16,1.16,0,0,1,.8.25.94.94,0,0,1,.33.7h-.54a.57.57,0,0,0-.19-.35.68.68,0,0,0-.4-.11.65.65,0,0,0-.55.23,1.29,1.29,0,0,0,0,1.35.63.63,0,0,0,.53.24.57.57,0,0,0,.61-.5Zm-4.89.92V26.63h1.29a1,1,0,0,1,.65.18.74.74,0,0,1,.21.57.76.76,0,0,1-.1.41.52.52,0,0,1-.3.22.45.45,0,0,1,.25.19.78.78,0,0,1,.08.39l0,.32h0c0,.16,0,.26.1.29v.08h-.6a.46.46,0,0,1-.05-.14s0-.12,0-.19v-.28a.53.53,0,0,0-.1-.34.38.38,0,0,0-.3-.09h-.58v1Zm.55-1.5H128a.5.5,0,0,0,.31-.08.33.33,0,0,0,.1-.27.37.37,0,0,0-.09-.27.48.48,0,0,0-.29-.08h-.67Zm-3,1.5V26.63h1.94v.46H125v.57h1.28v.45H125v.69h1.46v.49Zm-3.23,0V26.63H122l.53,2,.53-2h.81v2.66h-.51V27.14l-.54,2.15h-.56l-.55-2.15v2.15Zm-2.6,0V26.63h1.29a1,1,0,0,1,.64.18.74.74,0,0,1,.21.57.76.76,0,0,1-.1.41.53.53,0,0,1-.29.22.43.43,0,0,1,.24.19.89.89,0,0,1,.09.39v.32h0c0,.16,0,.26.1.29v.08h-.6a.47.47,0,0,1,0-.14,1,1,0,0,1,0-.19v-.28a.53.53,0,0,0-.09-.34.43.43,0,0,0-.31-.09h-.58v1Zm.54-1.5h.65a.52.52,0,0,0,.31-.08.41.41,0,0,0,0-.54.46.46,0,0,0-.29-.08h-.67Zm-3,1.5V26.63h1.93v.46h-1.39v.57H118v.45h-1.27v.69h1.46v.49Zm-1.85-.95v.95h-.55V26.63H115a.76.76,0,0,1,.85.85.9.9,0,0,1-.21.64.8.8,0,0,1-.61.22Zm0-.48h.53a.47.47,0,0,0,.32-.09.41.41,0,0,0,.09-.3.39.39,0,0,0-.09-.28.38.38,0,0,0-.29-.1h-.56Zm-1.67-1.23h.55v2.66h-.55Zm-2.77,2.66V26.63h.55v1h1.1v-1h.55v2.66h-.55V28.11h-1.1v1.18Z"/><path class="cls-7" d="M116.68,40.89A1.32,1.32,0,0,1,118,42.23a1.42,1.42,0,0,1-1.07,1.37h-3.33V40.89h3.11m-.48-3.23a1.18,1.18,0,0,0,1-1.24,1.14,1.14,0,0,0-1-1.26h-2.62v2.51Zm4.71,6.84a5.17,5.17,0,0,0,.55-2.27,3.89,3.89,0,0,0-2.16-3.37,3.71,3.71,0,0,0,1.56-3.07,3.64,3.64,0,0,0-3.67-3.62h-7.31V46.82l7,0a5.22,5.22,0,0,0,4.07-2.34m8.92,2.5a7.54,7.54,0,1,1,7.54-7.54A7.55,7.55,0,0,1,129.83,47m0-3.49a4,4,0,1,1,4-4,4,4,0,0,1-4,4m17.66-1.69a2.49,2.49,0,0,1-2.69,2,2.46,2.46,0,0,1-2.68-2.12V32.2h-3.64s0,10.13,0,10.13c0,2.57,2.81,4.67,6.25,4.67S151,44.9,151,42.33V35.14h5a1.38,1.38,0,0,1,0,2.75h-4.14l4.84,8.93h4l-3.32-6.37a4.33,4.33,0,0,0,3.44-4.17,4.18,4.18,0,0,0-4.17-4.15l-9.14,0Zm21.84-.93a1.32,1.32,0,0,1,1.29,1.34,1.38,1.38,0,0,1-1.29,1.4l-3.12,0V40.89Zm-.48-3.23a1.18,1.18,0,0,0,1-1.24,1.14,1.14,0,0,0-1-1.26h-2.62v2.51Zm4.71,6.84a5.17,5.17,0,0,0,.55-2.27A3.89,3.89,0,0,0,172,38.86a3.71,3.71,0,0,0,1.56-3.07,3.64,3.64,0,0,0-3.67-3.62h-7.31V46.82l7,0a5.22,5.22,0,0,0,4.07-2.34M182.2,47a7.54,7.54,0,1,1,7.53-7.54A7.55,7.55,0,0,1,182.2,47m0-3.49a4,4,0,1,1,4.05-4,4.05,4.05,0,0,1-4.05,4m8.91,3.37V32.19h5l5.52,10.56V32.19h3.68V46.88h-5.05l-5.52-10.55V46.88Z"/></g></g></svg>